<svg width="200" height="200" viewBox="0 0 200 200" xmlns="http://www.w3.org/2000/svg">
    <defs>
        <!-- Gradiente para la barra -->
        <linearGradient id="barGradient" x1="0%" y1="0%" x2="100%" y2="100%">
            <stop offset="0%" stop-color="#c0c0c0"/>
            <stop offset="100%" stop-color="#a0a0a0"/>
        </linearGradient>
        
        <!-- Gradiente para los discos -->
        <radialGradient id="diskGradient" cx="50%" cy="50%" r="50%" fx="30%" fy="30%">
            <stop offset="0%" stop-color="#808080"/>
            <stop offset="100%" stop-color="#606060"/>
        </radialGradient>
        
        <!-- Gradiente para el círculo exterior -->
        <linearGradient id="circleGradient" x1="0%" y1="0%" x2="100%" y2="100%">
            <stop offset="0%" stop-color="#d4af37"/>
            <stop offset="100%" stop-color="#b8860b"/>
        </linearGradient>
        
        <!-- Efecto de sombra -->
        <filter id="dropShadow" x="-10%" y="-10%" width="120%" height="120%">
            <feGaussianBlur in="SourceAlpha" stdDeviation="2"/>
            <feOffset dx="2" dy="2" result="offsetblur"/>
            <feComponentTransfer>
                <feFuncA type="linear" slope="0.2"/>
            </feComponentTransfer>
            <feMerge>
                <feMergeNode/>
                <feMergeNode in="SourceGraphic"/>
            </feMerge>
        </filter>
        
        <!-- Patrón de hojas de laurel -->
        <path id="laurelLeaf" d="M0,0 C5,-5 10,-2 10,5 C10,12 0,15 0,15 C0,15 -10,12 -10,5 C-10,-2 -5,-5 0,0 Z" 
              fill="#2e8b57" stroke="#1e5c37" stroke-width="0.5"/>
    </defs>

    <!-- Círculo exterior dorado -->
    <circle cx="100" cy="100" r="95" fill="url(#circleGradient)" stroke="#8b7500" stroke-width="2" filter="url(#dropShadow)" />
    
    <!-- Patrón de hojas de laurel alrededor del círculo -->
    <g transform="translate(100, 100)">
        <g transform="rotate(0)">
            <use href="#laurelLeaf" transform="translate(75, 0) rotate(90)" />
            <use href="#laurelLeaf" transform="translate(80, 0) rotate(90) scale(0.8)" />
        </g>
        <g transform="rotate(90)">
            <use href="#laurelLeaf" transform="translate(75, 0) rotate(90)" />
            <use href="#laurelLeaf" transform="translate(80, 0) rotate(90) scale(0.8)" />
        </g>
        <g transform="rotate(180)">
            <use href="#laurelLeaf" transform="translate(75, 0) rotate(90)" />
            <use href="#laurelLeaf" transform="translate(80, 0) rotate(90) scale(0.8)" />
        </g>
        <g transform="rotate(270)">
            <use href="#laurelLeaf" transform="translate(75, 0) rotate(90)" />
            <use href="#laurelLeaf" transform="translate(80, 0) rotate(90) scale(0.8)" />
        </g>
    </g>

    <!-- Molino de viento de 4 aspas -->
    <g transform="translate(100, 100)">
        <!-- Círculo central del molino -->
        <circle cx="0" cy="0" r="15" fill="#8b7500" stroke="#5c4d00" stroke-width="1"/>
        
        <!-- Aspas del molino -->
        <g transform="rotate(45)">
            <rect x="-2" y="-15" width="4" height="30" rx="2" fill="#8b7500" transform="rotate(0)" />
            <rect x="-2" y="-15" width="4" height="30" rx="2" fill="#8b7500" transform="rotate(90)" />
            <rect x="-2" y="-15" width="4" height="30" rx="2" fill="#8b7500" transform="rotate(180)" />
            <rect x="-2" y="-15" width="4" height="30" rx="2" fill="#8b7500" transform="rotate(270)" />
            
            <!-- Detalle de las aspas -->
            <rect x="-1" y="-30" width="2" height="15" rx="1" fill="#b8860b" transform="rotate(0)" />
            <rect x="-1" y="-30" width="2" height="15" rx="1" fill="#b8860b" transform="rotate(90)" />
            <rect x="-1" y="-30" width="2" height="15" rx="1" fill="#b8860b" transform="rotate(180)" />
            <rect x="-1" y="-30" width="2" height="15" rx="1" fill="#b8860b" transform="rotate(270)" />
        </g>
    </g>

    <!-- Barra horizontal de la pesa -->
    <rect x="50" y="90" width="100" height="20" rx="5" fill="url(#barGradient)" filter="url(#dropShadow)" />
    
    <!-- Barra vertical -->
    <rect x="95" y="50" width="10" height="40" rx="2" fill="url(#barGradient)" filter="url(#dropShadow)" />
    
    <!-- Disco superior -->
    <g transform="translate(100, 50)">
        <circle cx="0" cy="0" r="20" fill="url(#diskGradient)" filter="url(#dropShadow)" />
        <circle cx="0" cy="0" r="17" fill="none" stroke="#a0a0a0" stroke-width="0.5" />
        <circle cx="0" cy="0" r="14" fill="none" stroke="#a0a0a0" stroke-width="0.5" />
    </g>
    
    <!-- Disco izquierdo -->
    <g transform="translate(50, 100)">
        <circle cx="0" cy="0" r="15" fill="url(#diskGradient)" filter="url(#dropShadow)" />
        <circle cx="0" cy="0" r="13" fill="none" stroke="#a0a0a0" stroke-width="0.5" />
    </g>
    
    <!-- Disco derecho -->
    <g transform="translate(150, 100)">
        <circle cx="0" cy="0" r="15" fill="url(#diskGradient)" filter="url(#dropShadow)" />
        <circle cx="0" cy="0" r="13" fill="none" stroke="#a0a0a0" stroke-width="0.5" />
    </g>
    
    <!-- Agujero central -->
    <circle cx="100" cy="50" r="5" fill="#202020" />
    
    <!-- Texto decorativo (opcional) -->
    <text x="100" y="180" font-family="Arial" font-size="14" font-weight="bold" text-anchor="middle" fill="#8b7500">STRENGTH</text>
</svg>
