<svg width="200" height="200" viewBox="0 0 200 200" xmlns="http://www.w3.org/2000/svg">
    <defs>
        <!-- Gradiente para la barra -->
        <linearGradient id="barGradient" x1="0%" y1="0%" x2="100%" y2="100%">
            <stop offset="0%" stop-color="#c0c0c0"/>
            <stop offset="100%" stop-color="#a0a0a0"/>
        </linearGradient>



        <!-- Efecto de sombra -->
        <filter id="dropShadow" x="-10%" y="-10%" width="120%" height="120%">
            <feGaussianBlur in="SourceAlpha" stdDeviation="2"/>
            <feOffset dx="2" dy="2" result="offsetblur"/>
            <feComponentTransfer>
                <feFuncA type="linear" slope="0.2"/>
            </feComponentTransfer>
            <feMerge>
                <feMergeNode/>
                <feMergeNode in="SourceGraphic"/>
            </feMerge>
        </filter>

        <!-- Hoja de laurel de perfil -->
        <path id="laurelLeaf" d="M0,0 C5,-3 10,-1 10,3 C10,7 0,10 0,10 C0,10 -10,7 -10,3 C-10,-1 -5,-3 0,0 Z"
              fill="none" stroke="#2e8b57" stroke-width="0.5"/>

        <!-- Textura de madera para el molino -->
        <pattern id="woodTexture" patternUnits="userSpaceOnUse" width="20" height="20" patternTransform="rotate(45)">
            <line x1="0" y1="0" x2="0" y2="20" stroke="#8B4513" stroke-width="1" opacity="0.3"/>
        </pattern>
    </defs>


    <!-- Guirnalda de hojas de laurel de perfil -->
    <g transform="translate(100, 100)">
        <!-- Capa exterior de hojas -->
        <g transform="scale(1.5)">
            <use href="#laurelLeaf" transform="translate(60, 0) rotate(0)" />
            <use href="#laurelLeaf" transform="translate(55, 25) rotate(45)" />
            <use href="#laurelLeaf" transform="translate(40, 45) rotate(90)" />
            <use href="#laurelLeaf" transform="translate(15, 55) rotate(135)" />
            <use href="#laurelLeaf" transform="translate(-15, 55) rotate(180)" />
            <use href="#laurelLeaf" transform="translate(-40, 45) rotate(225)" />
            <use href="#laurelLeaf" transform="translate(-55, 25) rotate(270)" />
            <use href="#laurelLeaf" transform="translate(-60, 0) rotate(315)" />
            <use href="#laurelLeaf" transform="translate(-55, -25) rotate(0)" />
            <use href="#laurelLeaf" transform="translate(-40, -45) rotate(45)" />
            <use href="#laurelLeaf" transform="translate(-15, -55) rotate(90)" />
            <use href="#laurelLeaf" transform="translate(15, -55) rotate(135)" />
            <use href="#laurelLeaf" transform="translate(40, -45) rotate(180)" />
            <use href="#laurelLeaf" transform="translate(55, -25) rotate(225)" />
        </g>

    </g>

    <!-- Molino de viento estilo Quijote -->
    <g transform="translate(100, 90)">
        <!-- Estructura del molino -->
        <rect x="-4" y="0" width="8" height="50" fill="#8B4513" filter="url(#dropShadow)" />
        <rect x="-25" y="45" width="50" height="5" fill="#8B4513" rx="2" />

        <!-- Tejado cónico -->
        <path d="M-25,45 L0,20 L25,45 Z" fill="#A0522D" />

        <!-- Ventanas -->
        <rect x="-5" y="30" width="10" height="10" rx="2" fill="#87CEEB" stroke="#000" stroke-width="0.5" />
        <rect x="-10" y="35" width="5" height="5" rx="1" fill="#87CEEB" stroke="#000" stroke-width="0.5" />
        <rect x="5" y="35" width="5" height="5" rx="1" fill="#87CEEB" stroke="#000" stroke-width="0.5" />

        <!-- Aspas del molino -->
        <g transform="rotate(45)">
            <rect x="-2" y="-50" width="4" height="60" rx="2" fill="#8B4513" transform="rotate(0)" />
            <rect x="-2" y="-50" width="4" height="60" rx="2" fill="#8B4513" transform="rotate(90)" />
            <rect x="-2" y="-50" width="4" height="60" rx="2" fill="#8B4513" transform="rotate(180)" />
            <rect x="-2" y="-50" width="4" height="60" rx="2" fill="#8B4513" transform="rotate(270)" />

            <!-- Lona de las aspas -->
            <path d="M0,-50 L20,-30 L20,-10 Z" fill="#D2691E" transform="rotate(0)" />
            <path d="M0,-50 L20,-30 L20,-10 Z" fill="#A0522D" transform="rotate(90)" />
            <path d="M0,-50 L20,-30 L20,-10 Z" fill="#D2691E" transform="rotate(180)" />
            <path d="M0,-50 L20,-30 L20,-10 Z" fill="#A0522D" transform="rotate(270)" />
        </g>
    </g>


    <!-- Texto decorativo -->
    <text x="100" y="160" font-family="Arial" font-size="20" font-weight="bold" text-anchor="middle" fill="#8b7500" font-style="italic">ANDS</text>
</svg>
